<?xml version="1.0" encoding="UTF-8"?>
<svg width="30px" height="24px" viewBox="0 0 30 24" version="1.1" xmlns="http://www.w3.org/2000/svg" xmlns:xlink="http://www.w3.org/1999/xlink">
    <!-- Generator: Sketch 47.1 (45422) - http://www.bohemiancoding.com/sketch -->
    <title>exercises</title>
    <desc>Created with Sketch.</desc>
    <defs></defs>
    <g id="Page-1" stroke="none" stroke-width="1" fill="none" fill-rule="evenodd">
        <g id="exercises">
            <path d="M13,3.17805687 L13,1.30584797 L13,1.30584797 C13,0.686775714 12.4981428,0.184918489 11.8790705,0.184918489 C11.5819274,0.184918489 11.2969422,0.302900522 11.0867514,0.512933487 L1.00579735,10.5863177 L1.0047358,10.5852554 C0.223393917,11.3660105 0.22291829,12.6323404 1.00367346,13.4136823 C1.00402744,13.4140365 1.00438156,13.4143907 1.0047358,13.4147446 L11.0867514,23.4870665 L11.0867514,23.4870665 C11.524666,23.9246523 12.2343993,23.9243857 12.671985,23.4864711 C12.882018,23.2762803 13,22.9912951 13,22.694152 L13,20.8219431 L13,20.8219431 C13,20.2890918 12.787366,19.7782702 12.409271,19.4028043 L6.38370746,13.4191389 L6.38370746,13.4191389 C5.5999387,12.64082 5.59552071,11.3744977 6.37383961,10.590729 C6.3771174,10.5874282 6.38040671,10.5841389 6.38370746,10.5808611 L12.409271,4.59719575 L12.409271,4.59719575 C12.787366,4.22172979 13,3.71090817 13,3.17805687 Z" id="Shape" fill="#88888C"></path>
            <path d="M30,3.17805687 L30,1.30584797 L30,1.30584797 C30,0.686775714 29.4981428,0.184918489 28.8790705,0.184918489 C28.5819274,0.184918489 28.2969422,0.302900522 28.0867514,0.512933487 L18.0057973,10.5863177 L18.0047358,10.5852554 C17.2233939,11.3660105 17.2229183,12.6323404 18.0036735,13.4136823 C18.0040274,13.4140365 18.0043816,13.4143907 18.0047358,13.4147446 L28.0867514,23.4870665 L28.0867514,23.4870665 C28.524666,23.9246523 29.2343993,23.9243857 29.671985,23.4864711 C29.882018,23.2762803 30,22.9912951 30,22.694152 L30,20.8219431 L30,20.8219431 C30,20.2890918 29.787366,19.7782702 29.409271,19.4028043 L23.3837075,13.4191389 L23.3837075,13.4191389 C22.5999387,12.64082 22.5955207,11.3744977 23.3738396,10.590729 C23.3771174,10.5874282 23.3804067,10.5841389 23.3837075,10.5808611 L29.409271,4.59719575 L29.409271,4.59719575 C29.787366,4.22172979 30,3.71090817 30,3.17805687 Z" id="Shape" fill="#BFBFBF" transform="translate(23.500000, 12.000000) scale(-1, 1) translate(-23.500000, -12.000000) "></path>
        </g>
    </g>
</svg>