<?xml version="1.0" encoding="UTF-8"?>
<svg width="20px" height="26px" viewBox="0 0 20 26" version="1.1" xmlns="http://www.w3.org/2000/svg" xmlns:xlink="http://www.w3.org/1999/xlink">
    <!-- Generator: Sketch 47.1 (45422) - http://www.bohemiancoding.com/sketch -->
    <title>bookmarks</title>
    <desc>Created with Sketch.</desc>
    <defs></defs>
    <g id="Page-1" stroke="none" stroke-width="1" fill="none" fill-rule="evenodd">
        <g id="bookmarks">
            <path d="M2,1.21709825e-15 L18,1.21709825e-15 L18,1.33226763e-15 C19.1045695,1.12935919e-15 20,0.8954305 20,2 L20,23.6027019 L20,23.6027019 C20,24.431129 19.3284271,25.1027019 18.5,25.1027019 C18.0710361,25.1027019 17.6625972,24.9190477 17.3779201,24.5981599 L10.7480533,17.1249768 L10.7480533,17.1249768 C10.3815357,16.7118384 9.74949971,16.6740448 9.3363613,17.0405623 C9.30656715,17.0669943 9.27837875,17.0951827 9.25194674,17.1249768 L2.62207989,24.5981599 L2.62207989,24.5981599 C2.07230358,25.2178675 1.12424956,25.274558 0.504541949,24.7247817 C0.183654112,24.4401047 3.6052466e-15,24.0316657 3.55271368e-15,23.6027019 L0,2 L0,2 C-1.3527075e-16,0.8954305 0.8954305,1.97926528e-15 2,1.77635684e-15 Z" id="Rectangle" fill="#BFBFBF"></path>
            <path d="M2,0 L18,0 L18,1.33226763e-15 C19.1045695,1.1293615e-15 20,0.8954305 20,2 L20,18.6027019 L20,18.6027019 C20,19.431129 19.3284271,20.1027019 18.5,20.1027019 C18.0710361,20.1027019 17.6625972,19.9190477 17.3779201,19.5981599 L10.7480533,12.1249768 L10.7480533,12.1249768 C10.3815357,11.7118384 9.74949971,11.6740448 9.3363613,12.0405623 C9.30656715,12.0669943 9.27837875,12.0951827 9.25194674,12.1249768 L2.62207989,19.5981599 L2.62207989,19.5981599 C2.07230358,20.2178675 1.12424956,20.274558 0.504541949,19.7247817 C0.183654112,19.4401047 5.25329258e-17,19.0316657 0,18.6027019 L1.53128746e-16,2 L0,2 C-1.3527075e-16,0.8954305 0.8954305,-1.91384796e-17 2,-2.22044605e-16 Z" id="Rectangle" fill="#88888C"></path>
        </g>
    </g>
</svg>