<?xml version="1.0" encoding="UTF-8"?>
<svg width="24px" height="25px" viewBox="0 0 24 25" version="1.1" xmlns="http://www.w3.org/2000/svg" xmlns:xlink="http://www.w3.org/1999/xlink">
    <!-- Generator: Sketch 47.1 (45422) - http://www.bohemiancoding.com/sketch -->
    <title>home</title>
    <desc>Created with Sketch.</desc>
    <defs></defs>
    <g id="Page-1" stroke="none" stroke-width="1" fill="none" fill-rule="evenodd">
        <g id="home" fill-rule="nonzero">
            <path d="M16.952,1.5 L21.8095059,1.15303529 L21.8095059,1.15303529 C22.9112684,1.07433797 23.8682201,1.90369614 23.9469174,3.00545859 C23.9503047,3.05288112 23.952,3.10040935 23.952,3.14795269 L23.952,20.8520473 L23.952,20.8520473 C23.952,21.9566168 23.0565695,22.8520473 21.952,22.8520473 C21.9044567,22.8520473 21.8569284,22.850352 21.8095059,22.8469647 L16.952,22.5 L16.952,1.5 Z" id="Rectangle-23" fill="#BFBFBF"></path>
            <path d="M1.76682006,1.88644566 L17.7188201,0.0138315128 L17.7188201,0.0138315128 C18.8158565,-0.11495021 19.8095785,0.669975361 19.9383603,1.76701185 C19.9474457,1.84440639 19.952,1.92226579 19.952,2.00019178 L19.952,22.0410942 L19.952,22.0410942 C19.952,23.1456637 19.0565695,24.0410942 17.952,24.0410942 C17.8946272,24.0410942 17.8372809,24.0386254 17.7801203,24.0336948 L1.82812033,22.6576918 L1.82812033,22.6576918 C0.794013622,22.5684908 0,21.7030379 0,20.6650911 L0,3.87280593 L0,3.87280593 C0,2.85844056 0.759372527,2.00471049 1.76682006,1.88644566 Z" id="Rectangle" fill="#88888C"></path>
        </g>
    </g>
</svg>