<?xml version="1.0" encoding="UTF-8"?>
<svg width="28px" height="24px" viewBox="0 0 28 24" version="1.1" xmlns="http://www.w3.org/2000/svg" xmlns:xlink="http://www.w3.org/1999/xlink">
    <!-- Generator: Sketch 47.1 (45422) - http://www.bohemiancoding.com/sketch -->
    <title>chapters</title>
    <desc>Created with Sketch.</desc>
    <defs></defs>
    <g id="Page-1" stroke="none" stroke-width="1" fill="none" fill-rule="evenodd">
        <g id="chapters" fill-rule="nonzero">
            <path d="M15.0255804,10.2121237 L27.1655763,15.438536 C27.8534045,15.7346542 28.1814155,16.5577224 27.8982093,17.2769102 C27.7614576,17.6241841 27.4977076,17.899959 27.1655763,18.0429455 L15.0255804,23.2693577 C14.3686144,23.5521894 13.6313856,23.5521894 12.9744196,23.2693577 L0.834423676,18.0429455 C0.146595454,17.7468273 -0.181415494,16.9237591 0.101790719,16.2045713 C0.238542364,15.8572974 0.502292398,15.5815224 0.834423676,15.438536 L12.9744196,10.2121237 C13.6313856,9.92929208 14.3686144,9.92929208 15.0255804,10.2121237 Z" id="Rectangle" fill="#A8CBFA"></path>
            <path d="M15.0255804,5.21212375 L27.1655763,10.438536 C27.8534045,10.7346542 28.1814155,11.5577224 27.8982093,12.2769102 C27.7614576,12.6241841 27.4977076,12.899959 27.1655763,13.0429455 L15.0255804,18.2693577 C14.3686144,18.5521894 13.6313856,18.5521894 12.9744196,18.2693577 L0.834423676,13.0429455 C0.146595454,12.7468273 -0.181415494,11.9237591 0.101790719,11.2045713 C0.238542364,10.8572974 0.502292398,10.5815224 0.834423676,10.438536 L12.9744196,5.21212375 C13.6313856,4.92929208 14.3686144,4.92929208 15.0255804,5.21212375 Z" id="Rectangle" fill="#7AA9F8"></path>
            <path d="M15.0255804,0.212123748 L27.1655763,5.43853599 C27.8534045,5.73465419 28.1814155,6.55772236 27.8982093,7.27691019 C27.7614576,7.62418406 27.4977076,7.89995904 27.1655763,8.0429455 L15.0255804,13.2693577 C14.3686144,13.5521894 13.6313856,13.5521894 12.9744196,13.2693577 L0.834423676,8.0429455 C0.146595454,7.74682729 -0.181415494,6.92375912 0.101790719,6.20457129 C0.238542364,5.85729742 0.502292398,5.58152244 0.834423676,5.43853599 L12.9744196,0.212123748 C13.6313856,-0.070707916 14.3686144,-0.070707916 15.0255804,0.212123748 Z" id="Rectangle" fill="#007AFF"></path>
        </g>
    </g>
</svg>