<?xml version="1.0" encoding="UTF-8"?>
<svg width="24px" height="24px" viewBox="0 0 24 24" version="1.1" xmlns="http://www.w3.org/2000/svg" xmlns:xlink="http://www.w3.org/1999/xlink">
    <!-- Generator: Sketch 47.1 (45422) - http://www.bohemiancoding.com/sketch -->
    <title>night</title>
    <desc>Created with Sketch.</desc>
    <defs></defs>
    <g id="Symbols" stroke="none" stroke-width="1" fill="none" fill-rule="evenodd">
        <g id="button-option-night" transform="translate(-2.000000, -2.000000)" fill="#96979B">
            <g id="Group-3">
                <path d="M10.9787198,5.51966885 C7.49426317,6.76116642 5,10.0893 5,14 C5,18.9705627 9.02943725,23 14,23 C17.3749568,23 20.3160303,21.1423251 21.856482,18.3937141 C20.8874106,18.7854125 19.8354385,19 18.7360334,19 C13.9112554,19 10,14.8672066 10,9.76914751 C10,8.23677069 10.3533764,6.79160426 10.9787198,5.51966885 Z M14,26 C7.372583,26 2,20.627417 2,14 C2,7.372583 7.372583,2 14,2 C20.627417,2 26,7.372583 26,14 C26,20.627417 20.627417,26 14,26 Z" id="night"></path>
            </g>
        </g>
    </g>
</svg>