<?xml version="1.0" encoding="UTF-8"?>
<svg width="14px" height="14px" viewBox="0 0 14 14" version="1.1" xmlns="http://www.w3.org/2000/svg" xmlns:xlink="http://www.w3.org/1999/xlink">
    <!-- Generator: Sketch 47.1 (45422) - http://www.bohemiancoding.com/sketch -->
    <title>Search</title>
    <desc>Created with Sketch.</desc>
    <defs></defs>
    <g id="Page-1" stroke="none" stroke-width="1" fill="none" fill-rule="evenodd">
        <g id="Chapters" transform="translate(-26.000000, -128.000000)" fill="#8E8E93">
            <g id="Title" transform="translate(16.000000, 60.000000)">
                <g id="Search-Bar" transform="translate(0.000000, 57.000000)">
                    <path d="M19.9101869,19.7399811 C20.597264,18.8028391 20.9653285,17.6698569 20.9601966,16.5078238 C20.9470868,13.4745319 18.4937957,11.0175753 15.4606455,11.0000557 C14.0091121,10.9934881 12.6152404,11.5677399 11.5895454,12.5948841 C10.5638505,13.6220283 9.99153499,15.0167418 10.0000947,16.4683219 C10.0132045,19.5018899 12.4667195,21.9590704 15.5001458,21.97659 C16.6668669,21.9816469 17.8039438,21.6092716 18.741676,20.9150383 L22.2867185,24.427705 C22.4937693,24.644929 22.802289,24.7328562 23.0927409,24.6574189 C23.3831927,24.5819815 23.6099381,24.355033 23.6851239,24.0645053 C23.7603097,23.7739776 23.672122,23.465521 23.4547293,23.2586481 L19.9101869,19.7399811 Z M15.5164231,20.9999615 C13.0256694,20.9856537 11.0110051,18.9710994 11.0000711,16.4838564 C10.9933485,15.2937846 11.4633425,14.1504163 12.3054305,13.3082696 C13.1475185,12.466123 14.2918085,11.9950951 15.4835769,12.0000385 C17.9743306,12.0143463 19.9889949,14.0289006 19.9999289,16.5161436 C20.0066515,17.7062154 19.5366575,18.8495837 18.6945695,19.6917304 C17.8524815,20.533877 16.7081915,21.0049049 15.5164231,20.9999615 Z" id="Search"></path>
                </g>
            </g>
        </g>
    </g>
</svg>